<svg width="20" height="20" viewBox="0 0 20 20" fill="none" xmlns="http://www.w3.org/2000/svg">
<path fill-rule="evenodd" clip-rule="evenodd" d="M10 20C15.5228 20 20 15.5228 20 10C20 4.47715 15.5228 0 10 0C4.47715 0 0 4.47715 0 10C0 15.5228 4.47715 20 10 20Z" fill="#C7D3DC"/>
<path fill-rule="evenodd" clip-rule="evenodd" d="M9.1046 12.8996C9.36495 13.1599 9.78706 13.1599 10.0474 12.8996C10.0477 12.8992 10.0481 12.8989 10.0484 12.8986L14.2901 8.65688C14.5505 8.39653 14.5505 7.97442 14.2901 7.71407C14.0298 7.45372 13.6076 7.45372 13.3473 7.71407L9.576 11.4854L7.45468 9.36404C7.19433 9.1037 6.77222 9.1037 6.51187 9.36404C6.25152 9.62439 6.25152 10.0465 6.51187 10.3069L9.1046 12.8996Z" fill="white"/>
</svg>
