<svg width="128" height="115" viewBox="0 0 128 115" fill="none" xmlns="http://www.w3.org/2000/svg">
<path d="M94 3.57541C94 2.3239 94 1.69815 94.2436 1.22013C94.4578 0.799659 94.7997 0.457803 95.2201 0.243561C95.6981 0 96.3239 0 97.5754 0H124.425C125.676 0 126.302 0 126.78 0.243561C127.2 0.457803 127.542 0.799659 127.756 1.22013C128 1.69815 128 2.3239 128 3.57542V115H94V3.57541Z" fill="#E0E7EC"/>
<path d="M47 3.57541C47 2.3239 47 1.69815 47.2436 1.22013C47.4578 0.799659 47.7997 0.457803 48.2201 0.243561C48.6981 0 49.3239 0 50.5754 0H77.4246C78.6761 0 79.3019 0 79.7799 0.243561C80.2003 0.457803 80.5422 0.799659 80.7564 1.22013C81 1.69815 81 2.3239 81 3.57542V115H47V3.57541Z" fill="#E0E7EC"/>
<path d="M0 3.57541C0 2.3239 0 1.69815 0.243561 1.22013C0.457803 0.799659 0.799659 0.457803 1.22013 0.243561C1.69815 0 2.3239 0 3.57542 0H30.4246C31.6761 0 32.3019 0 32.7799 0.243561C33.2003 0.457803 33.5422 0.799659 33.7564 1.22013C34 1.69815 34 2.3239 34 3.57542V115H0V3.57541Z" fill="#E0E7EC"/>
<path d="M94 68.5754C94 67.3239 94 66.6981 94.2436 66.2201C94.4578 65.7997 94.7997 65.4578 95.2201 65.2436C95.6981 65 96.3239 65 97.5754 65H124.425C125.676 65 126.302 65 126.78 65.2436C127.2 65.4578 127.542 65.7997 127.756 66.2201C128 66.6981 128 67.3239 128 68.5754V115H94V68.5754Z" fill="#94A2AB"/>
<path d="M47 28.5754C47 27.3239 47 26.6981 47.2436 26.2201C47.4578 25.7997 47.7997 25.4578 48.2201 25.2436C48.6981 25 49.3239 25 50.5754 25H77.4246C78.6761 25 79.3019 25 79.7799 25.2436C80.2003 25.4578 80.5422 25.7997 80.7564 26.2201C81 26.6981 81 27.3239 81 28.5754V115H47V28.5754Z" fill="#94A2AB"/>
<path d="M0 48.5754C0 47.3239 0 46.6981 0.243561 46.2201C0.457803 45.7997 0.799659 45.4578 1.22013 45.2436C1.69815 45 2.3239 45 3.57542 45H30.4246C31.6761 45 32.3019 45 32.7799 45.2436C33.2003 45.4578 33.5422 45.7997 33.7564 46.2201C34 46.6981 34 47.3239 34 48.5754V115H0V48.5754Z" fill="#94A2AB"/>
</svg>
