<svg width="42" height="42" viewBox="0 0 42 42" fill="none" xmlns="http://www.w3.org/2000/svg">
<path d="M0.5 21C0.5 32.3218 9.67816 41.5 21 41.5C32.3218 41.5 41.5 32.3218 41.5 21C41.5 9.67816 32.3218 0.5 21 0.5C9.67816 0.5 0.5 9.67816 0.5 21Z" fill="#F3F5F8" stroke="#4F5C65"/>
<mask id="path-2-outside-1" maskUnits="userSpaceOnUse" x="14.3943" y="11.381" width="15" height="19" fill="black">
<rect fill="white" x="14.3943" y="11.381" width="15" height="19"/>
<path fill-rule="evenodd" clip-rule="evenodd" d="M23.1498 13.381H16.9454C16.0923 13.381 15.402 14.0667 15.402 14.9048L15.3943 27.0953C15.3943 27.9334 16.0845 28.6191 16.9376 28.6191H26.252C27.1051 28.6191 27.8031 27.9334 27.8031 27.0953V17.9524L23.1498 13.381V13.381ZM23.2119 25.5714H17.0074V24.0476H23.2119V25.5714V25.5714ZM23.2119 22.5238H17.0074V21H23.2119V22.5238V22.5238ZM20.8852 18.7143V14.5238L25.1507 18.7143H20.8852V18.7143Z"/>
</mask>
<path fill-rule="evenodd" clip-rule="evenodd" d="M23.1498 13.381H16.9454C16.0923 13.381 15.402 14.0667 15.402 14.9048L15.3943 27.0953C15.3943 27.9334 16.0845 28.6191 16.9376 28.6191H26.252C27.1051 28.6191 27.8031 27.9334 27.8031 27.0953V17.9524L23.1498 13.381V13.381ZM23.2119 25.5714H17.0074V24.0476H23.2119V25.5714V25.5714ZM23.2119 22.5238H17.0074V21H23.2119V22.5238V22.5238ZM20.8852 18.7143V14.5238L25.1507 18.7143H20.8852V18.7143Z" fill="#FCFCFC"/>
<path d="M15.402 14.9048L16.402 14.9054V14.9048H15.402ZM15.3943 27.0953L14.3943 27.0946V27.0953H15.3943ZM27.8031 17.9524H28.8031V17.533L28.5039 17.2391L27.8031 17.9524ZM17.0074 25.5714H16.0074V26.5714H17.0074V25.5714ZM17.0074 24.0476V23.0476H16.0074V24.0476H17.0074ZM23.2119 24.0476H24.2119V23.0476H23.2119V24.0476ZM17.0074 22.5238H16.0074V23.5238H17.0074V22.5238ZM17.0074 21V20H16.0074V21H17.0074ZM23.2119 21H24.2119V20H23.2119V21ZM20.8852 14.5238L21.586 13.8105L19.8852 12.1396V14.5238H20.8852ZM25.1507 18.7143V19.7143H27.5956L25.8515 18.0009L25.1507 18.7143ZM23.1498 12.381H16.9454V14.381H23.1498V12.381ZM16.9454 12.381C15.5502 12.381 14.402 13.5042 14.402 14.9048H16.402C16.402 14.6292 16.6343 14.381 16.9454 14.381V12.381ZM14.402 14.9042L14.3943 27.0946L16.3943 27.0959L16.402 14.9054L14.402 14.9042ZM14.3943 27.0953C14.3943 28.4958 15.5425 29.6191 16.9376 29.6191V27.6191C16.6266 27.6191 16.3943 27.3709 16.3943 27.0953H14.3943ZM16.9376 29.6191H26.252V27.6191H16.9376V29.6191ZM26.252 29.6191C27.6406 29.6191 28.8031 28.5023 28.8031 27.0953H26.8031C26.8031 27.3644 26.5697 27.6191 26.252 27.6191V29.6191ZM28.8031 27.0953V17.9524H26.8031V27.0953H28.8031ZM28.5039 17.2391L23.8506 12.6676L22.449 14.0943L27.1023 18.6658L28.5039 17.2391ZM23.2119 24.5714H17.0074V26.5714H23.2119V24.5714ZM18.0074 25.5714V24.0476H16.0074V25.5714H18.0074ZM17.0074 25.0476H23.2119V23.0476H17.0074V25.0476ZM22.2119 24.0476V25.5714H24.2119V24.0476H22.2119ZM23.2119 21.5238H17.0074V23.5238H23.2119V21.5238ZM18.0074 22.5238V21H16.0074V22.5238H18.0074ZM17.0074 22H23.2119V20H17.0074V22ZM22.2119 21V22.5238H24.2119V21H22.2119ZM21.8852 18.7143V14.5238H19.8852V18.7143H21.8852ZM20.1844 15.2372L24.4499 19.4277L25.8515 18.0009L21.586 13.8105L20.1844 15.2372ZM25.1507 17.7143H20.8852V19.7143H25.1507V17.7143Z" fill="#4F5C65" mask="url(#path-2-outside-1)"/>
</svg>
