<?xml version="1.0" encoding="UTF-8"?>
<svg width="2173px" height="1077px" viewBox="0 0 2173 1077" version="1.1" xmlns="http://www.w3.org/2000/svg" xmlns:xlink="http://www.w3.org/1999/xlink">
    <title>bgwave1</title>
    <defs>
        <linearGradient x1="100%" y1="38.5821034%" x2="3.31945017%" y2="68.6705175%" id="linearGradient-1">
            <stop stop-color="#32C5FF" offset="0%"></stop>
            <stop stop-color="#B620E0" offset="100%"></stop>
            <stop stop-color="#B620E0" offset="100%"></stop>
        </linearGradient>
        <path d="M314.34658,718.977737 C388.509377,788.245623 440.600299,880.021521 521.562028,941.1996 C629.680309,1022.90005 776.699611,1038.48397 909.692824,1012.44367 C983.189641,998.051137 1056.0502,970.974795 1112.22886,921.45393 C1171.22002,869.448983 1209.80089,794.750969 1276.96212,753.834558 C1344.22602,712.862765 1427.5842,713.134272 1506.21162,708.648339 C1584.83905,704.162405 1670.54368,689.963029 1722.48601,630.758437 C1790.00522,553.792467 1777.33946,426.337124 1851.44282,355.687391 C1907.15813,302.570755 1995.0917,298.684567 2056.03623,251.663991 C2135.19725,190.581817 2148.06834,75.4820387 2211,-2.21605261 C1854.5863,-57.0008997 1490.26437,-24.7745853 1131.01136,-22.7681372 C771.758355,-20.7616892 362.336044,-20.6034641 -2.84613474,-19.9705638 C-3.22853826,183.019017 -3.28782737,381.604748 1.82401347,589.794748 C121.71288,593.286959 225.887069,636.347955 314.34658,718.977737 Z" id="path-2"></path>
    </defs>
    <g id="bgwave1" stroke="none" stroke-width="1" fill="none" fill-rule="evenodd">
        <g id="5ef927cc9e89d6ca547949cc_hero-wave-tall" transform="translate(469.000000, 418.000000)"></g>
        <g id="Path_2" fill-rule="nonzero">
            <use fill="#6165FF" xlink:href="#path-2"></use>
            <use fill="url(#linearGradient-1)" xlink:href="#path-2"></use>
        </g>
    </g>
</svg>