<?xml version="1.0" encoding="UTF-8"?>
<svg width="33px" height="14px" viewBox="0 0 33 14" version="1.1" xmlns="http://www.w3.org/2000/svg" xmlns:xlink="http://www.w3.org/1999/xlink">
    <title>Group</title>
    <defs>
        <linearGradient x1="100%" y1="43.3884298%" x2="0%" y2="56.6115702%" id="linearGradient-1">
            <stop stop-color="#32C5FF" offset="0%"></stop>
            <stop stop-color="#B620E0" offset="100%"></stop>
        </linearGradient>
        <linearGradient x1="113.274043%" y1="50%" x2="0%" y2="50%" id="linearGradient-2">
            <stop stop-color="#32C5FF" offset="0%"></stop>
            <stop stop-color="#B620E0" offset="83.5040118%"></stop>
            <stop stop-color="#E89137" offset="100%"></stop>
        </linearGradient>
    </defs>
    <g id="Page-1" stroke="none" stroke-width="1" fill="none" fill-rule="evenodd">
        <g id="Group">
            <path d="M0,0 C0.301480004,0.707307295 0.589692832,1.23211692 0.864638484,1.57442887 C1.13958414,1.91674083 1.63816965,2.34364246 2.36039503,2.85513376 C2.97623453,3.22993798 3.47287593,3.50854901 3.85031923,3.69096687 C4.22776254,3.87338472 4.79084239,4.12347782 5.53955879,4.44124617 C6.29404652,4.73932931 6.85876439,4.94142029 7.23371239,5.04751909 C7.6086604,5.1536179 8.1531915,5.27646483 8.86730569,5.41605989 C9.23316122,5.47614868 9.68648482,5.50889213 10.2272765,5.51429025 C10.7680682,5.51968837 11.6218496,5.51784731 12.7886206,5.50876707 L16.7723679,5.45392157 L20.3383853,5.58274038 C21.0416338,5.6657762 21.5937042,5.74411798 21.9945965,5.81776572 C22.3954888,5.89141346 22.9908452,6.02386491 23.7806656,6.21512007 C24.4940626,6.41562518 25.0278849,6.58366983 25.3821324,6.719254 C25.73638,6.85483817 26.231261,7.07002613 26.8667756,7.36481789 C27.458406,7.66341013 27.9209482,7.90215524 28.2544024,8.08105323 C28.5878565,8.25995122 29.0670593,8.55769699 29.6920107,8.97429054 C30.2344976,9.34306096 30.6419635,9.62804054 30.9144084,9.82922929 C31.1868534,10.030418 31.46261,10.2499685 31.7416781,10.4878806 C32.017589,10.7210307 32.2268267,10.9097249 32.3693913,11.0539633 C32.5119558,11.1982017 32.7221587,11.5135473 33,12 C32.9261157,11.078958 32.8527371,10.4091339 32.7798642,9.99052762 C32.7069912,9.57192131 32.5588646,8.94271092 32.3354843,8.10289645 C32.0156757,7.32203375 31.7385622,6.72123446 31.5041436,6.30049856 C31.2697251,5.87976267 30.8824298,5.2880768 30.3422579,4.52544095 C29.7543455,3.87063255 29.2843264,3.38554703 28.9322004,3.07018441 C28.7338109,2.89250754 28.4544053,2.66182324 28.1220256,2.40486341 C27.9503133,2.27211415 27.6571876,2.0536407 27.2426486,1.74944304 C26.7595655,1.45064899 26.3922318,1.2380524 26.1406476,1.11165327 C25.7632713,0.922054577 25.7623174,0.90012767 25.5101472,0.788265247 C25.4104584,0.744043448 25.2473444,0.667157603 25.0208051,0.557607712 C24.6780873,0.418397328 24.4135444,0.314016365 24.2271764,0.244464823 C24.0653305,0.184064795 23.8323475,0.120538958 23.5282274,0.0538873127 C23.4975082,0.0471548283 23.4505786,0.0400674812 23.3874385,0.0326252717 L23.2776128,0.023375857 L22.1011574,0.023375857 L14.6713267,0.023375857 L0,0 Z" id="Path-4" fill="url(#linearGradient-1)"></path>
            <path d="M0,0 C0.246812478,0.648231237 0.457544909,1.16421216 0.632197294,1.54794276 C0.806849678,1.93167336 1.092745,2.50683852 1.48988325,3.27343825 C1.97292017,4.01864226 2.3213972,4.53100155 2.53531435,4.81051613 C3.13270498,5.59109585 3.65642981,6.04553125 3.85706677,6.23804289 C4.13298603,6.50278807 4.66511412,6.93384082 5.45345106,7.53120113 L6.54321613,8.20336469 L7.47214528,8.63958547 L8.56123938,8.9324971 L12.1726927,9.07915914 L16.4864075,8.98889415 C17.7669266,9.03353243 18.7103045,9.07038951 19.316541,9.09946538 C20.2258958,9.14307918 22.1136222,9.22740841 22.7431513,9.39153793 C23.1628374,9.5009576 23.6372703,9.64003694 24.16645,9.80877595 C24.8673695,10.049747 25.415355,10.2424201 25.8104066,10.386795 C26.2054582,10.53117 26.7731819,10.771458 27.5135777,11.107659 C28.1562756,11.4052655 28.6390109,11.6352509 28.9617833,11.797615 C29.2845558,11.9599792 29.6112516,12.1371616 29.9418706,12.3291624 C30.2687493,12.5173201 30.5166386,12.6696009 30.6855384,12.7860047 C30.8544382,12.9024086 31.343338,13.3070737 32.1522378,14 C32.3941631,13.4160606 32.5534734,13.0129876 32.6301685,12.7907809 C32.8902337,12.0373015 32.9963519,11.5723437 32.9985309,11.5123807 C33.0007098,11.4524176 33.0022091,11.314854 32.9897396,11.2514789 C32.9840705,11.222666 32.9757361,11.1030179 32.9553789,11.0306433 C32.9378329,10.9682634 32.8805225,10.8494814 32.7834475,10.6742975 C32.5574439,10.2321236 32.3055813,9.84126472 32.0278597,9.50172077 C31.7501381,9.16217682 31.2169281,8.66505202 30.4282297,8.01034636 C29.7317151,7.48190028 29.1748715,7.09042465 28.7576989,6.83591945 C28.5226618,6.69252996 28.1916429,6.5063622 27.7978642,6.29898946 C27.5944323,6.19185763 27.2471589,6.01554431 26.756044,5.77004951 C26.0551673,5.48206895 25.6394383,5.31427502 25.5088569,5.26666773 C25.3129849,5.1952568 24.8144712,4.98014475 24.3578288,4.82649073 C23.8907424,4.66932242 23.3826997,4.55835926 23.2316345,4.51271109 C23.1366742,4.48401641 22.3674506,4.2969502 21.6391948,4.13223363 C21.0088343,3.98965899 20.3783559,3.93363657 20.2111872,3.90867974 C20.1747934,3.90324647 20.1191947,3.89752681 20.044391,3.89152076 L19.9142777,3.88405627 L18.5205011,3.88405627 L9.71819222,3.88405627 C9.44807393,3.87101635 9.24007108,3.85542819 9.09418366,3.83729178 C8.94829624,3.81915538 8.72797672,3.78149544 8.43322509,3.72431196 C8.11243035,3.65749887 7.88093272,3.60862829 7.73873219,3.57770022 C7.59653166,3.54677216 7.40452759,3.50353276 7.16271999,3.44798203 C6.84086032,3.36560476 6.59694124,3.29947833 6.43096276,3.24960272 C6.26498428,3.19972711 6.02446627,3.1202829 5.70940874,3.01127008 L4.56588855,2.56157019 C3.95222957,2.31928807 3.5235627,2.14213656 3.27988794,2.03011566 C2.82983001,1.82321735 2.48721314,1.61997523 2.2047654,1.46151544 C1.88572579,1.28252676 1.48001016,1.02582391 0.987618516,0.691406886 C0.789249409,0.556680784 0.460043237,0.326211822 0,0 Z" id="Path-4" fill="url(#linearGradient-2)"></path>
        </g>
    </g>
</svg>